<?xml version="1.0" encoding="utf-8"?>
<svg xmlns="http://www.w3.org/2000/svg" viewBox="0 0 1200 280" width="100%" role="img" aria-label="Robot header">
  <rect width="100%" height="100%" fill="transparent"/>

  <g transform="translate(40,40)">
    <text x="0" y="28" font-family="Inter, Arial, sans-serif" font-size="28" fill="#0f172a" font-weight="600">Hi, I&apos;m Jan 👋</text>
    <text x="0" y="58" font-family="Inter, Arial, sans-serif" font-size="14" fill="#334155">Building reliable automations — n8n, Notion &amp; pragmatic JS</text>
  </g>

  <!-- simple circuit lines -->
  <g transform="translate(60,110)" stroke="#cbd5e1" stroke-width="2" fill="none" opacity="0.6">
    <path d="M400,10 h120 v40 h80"/>
    <circle cx="620" cy="50" r="6" fill="#e2e8f0"/>
    <path d="M720,50 h80 v-30 h120" />
    <path d="M240,50 h120 v-20 h60" />
  </g>

  <!-- robot (simplified) -->
  <g transform="translate(820,80)">
    <rect x="-160" y="0" rx="18" ry="18" width="160" height="120" fill="#06B6D4"/>
    <g transform="translate(-80,-50)">
      <rect x="-48" y="0" rx="10" ry="10" width="96" height="64" fill="#fff"/>
      <circle cx="-20" cy="28" r="8" fill="#0f172a">
        <animate attributeName="r" values="8;12;8" dur="1.6s" repeatCount="indefinite"/>
      </circle>
      <circle cx="20" cy="28" r="8" fill="#0f172a">
        <animate attributeName="r" values="8;12;8" dur="1.8s" begin="0.2s" repeatCount="indefinite"/>
      </circle>
      <rect x="-20" y="46" width="40" height="6" rx="3" fill="#94a3b8"/>
    </g>
  </g>

  <g transform="translate(60,220)">
    <text x="0" y="16" font-family="Inter, Arial, sans-serif" font-size="12" fill="#64748b">Friendly automations • maintainable flows • practical scripts</text>
  </g>
</svg>
